<svg xmlns="http://www.w3.org/2000/svg" data-name="Layer 1" width="441.22003" height="538.35004" viewBox="0 0 441.22003 538.35004" xmlns:xlink="http://www.w3.org/1999/xlink"><polygon points="441.22 536.35 441.22 538.35 73.97 538.35 73.97 0 75.97 0 75.97 536.35 441.22 536.35" fill="#3f3d56"/><path d="M707.44656,656.15966s-1.15118,5.86811-2.86395,14.75458c-2.42865,12.49433-5.95233,30.96918-8.91449,47.53473H478.01358c15.91974-25.63452,37.21628-52.687,54.16089-72.91656l1.26352-1.51618c.54751-.64581,1.081-1.27746,1.61438-1.90924,6.71051-7.93182,12.57861-14.64227,16.95865-19.58386,0-.014.01406-.014.0281-.014,5.124-5.76984,8.2266-9.097,8.2266-9.097l5.447,1.58636,12.57864,3.65,92.57059,26.884Z" transform="translate(-379.2667 -181.27704)" fill="#2f2e41"/><path d="M717.80356,662.8056c-.42,20.41-106.11-8.85-122.02-23.37-15.91-14.53-47.01,10.1-62.41.63-15.4-9.48,27.79-45.42,27.79-45.42a48.12629,48.12629,0,0,0-7.58-24.06c-7.58-11.37,0-5.05,4.57-10.35,4.56-5.3,5.9-47.5,5.9-47.5l-10.35-31.49a75.48853,75.48853,0,0,1,25.98-83.65l25.69-32.91,39.16-2.53,17.69,20.22,35.37,24-6.18,76.64s1.91,11.38,4.71,28.45c1.91,11.66,4.24,25.99,6.65,41.16C710.02353,598.29559,718.03354,651.57562,717.80356,662.8056Z" transform="translate(-379.2667 -181.27704)" fill="#3f3d56"/><path d="M752.78476,637.83624,743.72452,596.718l22.767-8.45294,8.03223,43.81354a14.09486,14.09486,0,1,1-21.739,5.75763Z" transform="translate(-379.2667 -181.27704)" fill="#ffb6b6"/><path d="M660.60281,389.57385l.67517-.09711a39.04018,39.04018,0,0,1,34.29755,12.23517c11.20544,12.1843,26.068,30.60934,35.044,50.80792,15.85278,35.67325,21.92242,51.90933,22.947,65.73828s-2.68872,10.62787,3.40637,17.82386,8.78394-3.43183,8.47687,11.191-5.88983,14.3413-.05091,18.08007,9.83393,1.35712,8.47687,11.191.23071,12.49726.48688,15.95453,8.16986,25.81391,8.16986,25.81391-25.27612,6.04419-35.67322,15.85272c0,0-.46136-24.99457-5.50647-27.40174s-9.834-1.35711-8.2207-7.73382,9.06549-9.01465.02545-9.04-63.3591-116.668-63.3591-116.668Z" transform="translate(-379.2667 -181.27704)" fill="#3f3d56"/><circle cx="622.69961" cy="316.87707" r="41.22389" transform="translate(-169.0979 699.50092) rotate(-80.78252)" fill="#ffb6b6"/><path d="M670.75021,303.48184c2.825,9.45627-2.89071,20.27112-10.30588,12.66324-3.24719-3.33161-3.106-7.48133-7.59286-8.681-3.62341-.973-7.5228.139-10.82785,1.89276-.59015.30945-3.23245-7.4158-3.79007-7.08118-.36807-.24594,1.33578,7.58438.94254,7.37088a13.09873,13.09873,0,0,0-9.64069-1.08441,12.85209,12.85209,0,0,1,6.35089,4.68106c-1.10614.74127-2.22659,1.48447-3.37259,2.143-2.1542,1.24316-21.80246.137-24.28015-.11054-11.88815-1.18741-5.995,6.38849-10.90045,17.28223q-.184.40864-.37192.82846l-.18927.6976c.31137-3.07047-9.18991-5.35867-8.639-1.03641.39121,3.06882,3.047,9.89,4.53446,12.59952-14.25275-9.7388-28.1326-20.16965-16.3085-42.71014,1.51712-2.89215.23233-6.67691,1.90808-9.4968,1.67752-2.80536,5.17483-4.774,8.26886-3.70419a27.33187,27.33187,0,0,1,41.14685-25.01142c3.95636,2.32151,6.65646,10.24985,10.88534,8.437,8.1399-3.48935,11.7117-.16874,12.40433,5.53463.352,2.899,6.09125-.57147,8.59726.9393,2.90292,1.753,3.4,5.42328,3.83563,8.955a13.08349,13.08349,0,0,0-7.04937,2.93375,12.80213,12.80213,0,0,1,7.70727,1.6531.79607.79607,0,0,1,.12622.07175C665.72412,299.08578,665.56689,300.37973,670.75021,303.48184Z" transform="translate(-379.2667 -181.27704)" fill="#2f2e41"/><path d="M820.48673,374.707v11.09h-66.52a5.54507,5.54507,0,1,1-.05-11.09Z" transform="translate(-379.2667 -181.27704)" fill="#00bfa6"/><path d="M442.09677,470.373a124.03432,124.03432,0,0,1-13.78284-25.449,1.45982,1.45982,0,0,0-2.71211.00033,123.92021,123.92021,0,0,1-13.77966,25.44815,1.46787,1.46787,0,0,0,1.6925,2.2432l11.51531-4.166v71.28409h3.85486V468.44952l11.51956,4.16663a1.46782,1.46782,0,0,0,1.69238-2.24317Z" transform="translate(-379.2667 -181.27704)" fill="#3f3d56"/><path d="M820.48673,403.79706v94.69h-3.33v-71.29l-11.51,4.17a1.468,1.468,0,0,1-1.7-2.24,123.9987,123.9987,0,0,0,13.78-25.45,1.49934,1.49934,0,0,1,.82-.82,1.44921,1.44921,0,0,1,1.89.82C820.4567,403.717,820.46671,403.75708,820.48673,403.79706Z" transform="translate(-379.2667 -181.27704)" fill="#3f3d56"/><path d="M678.13489,644.36389c-13.33628-10.4198-19.11658-38.59375-46.51029-46.25843-15.977-4.47039-29.45065.8003-52.04071,9.63715-29.76922,11.6452-42.8873,24.85382-60.50607,36.62122Z" transform="translate(-379.2667 -181.27704)" fill="#f2f2f2"/><path d="M820.48673,590.397v53.97h-120.97c4.96-3.85,9.42-10.31,14.35-18.25,6.33-10.2,13.45-22.84,23.43-35.52.05-.07.11-.13.16-.2Z" transform="translate(-379.2667 -181.27704)" fill="#f2f2f2"/><path d="M820.48673,538.31708v46.3h-78.27a139.97944,139.97944,0,0,1,21.64-20.37q3.195-2.445,6.54-4.69a141.765,141.765,0,0,1,22.61005-12.29A158.05585,158.05585,0,0,1,820.48673,538.31708Z" transform="translate(-379.2667 -181.27704)" fill="#f2f2f2"/><path d="M820.48673,509.44708V567.267a28.906,28.906,0,0,1-27.48-20,28.55937,28.55937,0,0,1-1.41-8.91A28.91407,28.91407,0,0,1,820.48673,509.44708Z" transform="translate(-379.2667 -181.27704)" fill="#00bfa6"/><path d="M499.30674,424.337a5.53959,5.53959,0,0,1-5.52,5.56h-114.52v-11.09h114.48A5.54809,5.54809,0,0,1,499.30674,424.337Z" transform="translate(-379.2667 -181.27704)" fill="#00bfa6"/><path d="M441.78738,608.35742l19.90583-37.10193L442.085,556.927l-19.64993,39.97528a14.09488,14.09488,0,1,0,19.35232,11.45508Z" transform="translate(-379.2667 -181.27704)" fill="#ffb6b6"/><path d="M606.71942,403.7181l-.62329-.27716a39.04,39.04,0,0,0-36.33258,2.442c-14.09781,8.6759-33.41272,22.362-47.54575,39.35645-24.96066,30.01428-43.89966,34.80975-48.64816,47.83825s-.30429,10.95844-8.12738,16.2247-7.51883-5.69226-11.2019,8.4625,1.76565,15.40277-4.87021,17.41186-9.83219-1.36969-11.20191,8.46253-3.62228,11.963-4.80938,15.22015-14.885,22.61719-14.885,22.61719,22.67809,12.6933,30.0143,24.96057c0,0,7.24444-23.92609,12.75415-24.86981s9.83224,1.36969,10.01477-5.20539-6.27084-11.14111,2.43512-8.706,72.95611-67.06964,72.95611-67.06964Z" transform="translate(-379.2667 -181.27704)" fill="#3f3d56"/><circle cx="427.51312" cy="581.35498" r="28.9115" transform="translate(-547.01331 808.00799) rotate(-88.09296)" fill="#f2f2f2"/></svg>